<?xml version="1.0" standalone="no"?><!DOCTYPE svg PUBLIC "-//W3C//DTD SVG 1.1//EN" "http://www.w3.org/Graphics/SVG/1.1/DTD/svg11.dtd"><svg class="icon" style="" viewBox="0 0 1024 1024" version="1.1" xmlns="http://www.w3.org/2000/svg" p-id="2635" xmlns:xlink="http://www.w3.org/1999/xlink" width="200" height="200"><defs><style type="text/css"><![CDATA[

]]></style></defs><path d="M959.101921 452.810946l-179.372274-48.064692L594.824357 511.50165l184.083575 106.280582 179.994444-48.228421 22.681582 84.654029-95.338369 25.545816 85.478813 49.352011-43.820018 75.898621-86.072331-49.691749 25.63075 95.653547-83.71975 22.429849-48.062646-179.372274L551.232536 587.531254l0 185.048553 131.308605 130.030495-61.890582 61.285808-69.419046-68.740594 0 127.318734L463.5925 1022.47425 463.5925 894.027833l-70.103638 69.419046-61.207014-60.610426 131.310651-130.029472L463.5925 587.268264l-160.714332 92.789313-46.953382 178.729637-84.022649-22.955828 24.822338-94.488001L86.465281 805.00224l-43.820018-75.898621 111.237477-64.222697-95.170546-26.001187 21.886473-83.312474 178.264033 48.703235 160.680563-92.768847L258.82893 418.71336 80.567967 467.415572l-22.132066-84.242659 94.241384-25.746384L42.415019 293.76665l43.820018-75.899644 111.239524 64.224744-25.067932-95.421256 83.095533-22.703071 46.953382 178.734754 161.13798 93.033883L463.593524 222.646869 331.826478 90.88187l61.972447-61.972447 69.794599 69.794599 0-98.704023 87.639013 0 0 99.388615 70.02382-70.02382 61.288878 61.285808-131.311675 131.310651 0 213.508745 184.083575-106.280582 48.230468-179.994444 84.654029 22.684652L842.653769 267.219018l85.478813-49.352011 43.820018 75.899644-86.072331 49.691749 95.653547 25.63075L959.101921 452.810946z" p-id="2636" fill="#ffffff"></path></svg>