<?xml version="1.0" standalone="no"?><!DOCTYPE svg PUBLIC "-//W3C//DTD SVG 1.1//EN" "http://www.w3.org/Graphics/SVG/1.1/DTD/svg11.dtd"><svg class="icon" style="" viewBox="0 0 1024 1024" version="1.1" xmlns="http://www.w3.org/2000/svg" p-id="3996" xmlns:xlink="http://www.w3.org/1999/xlink" width="200" height="200"><defs><style type="text/css"><![CDATA[

]]></style></defs><path d="M820.582077 651.154293l29.612435-16.322757-41.877783-23.783683-30.359448 15.902178-15.388479-8.722662 51.483558-28.399817-41.829687-23.735587-52.371788 27.840068-24.576745-14.177907-0.279363-51.764967 12.45159 0.327458 18.980283 32.365128 30.359448 0.886183-18.373463-32.365128 11.145851 0.327458 11.097756 18.559705 30.359448 0.933255-10.494005-18.606777 22.291702 0.653893 15.622816-14.784728-14.736633-15.715937-22.336728-0.651846 11.56643-18.048051-30.314423-0.838088-12.170181 17.952884-11.145851-0.327458 20.192901-31.152511-30.359448-0.931209-20.798698 31.245631-13.478989-0.372483-0.279363-54.377468 24.437575-13.430894 52.648081 27.375487 41.646516-24.249287-51.809993-27.840068 15.295358-8.908904 30.497595 15.622816 41.646516-24.204262-29.752628-16.08842 30.638811-17.766642 8.626471-32.830733-32.971949-8.581446-30.638811 17.766642 0.606821-33.668821-41.691541 24.201192-1.303692 34.136471-15.298428 8.860808 1.072425-58.620096-41.59535 24.251334-1.912559 59.0857-27.933189 15.343453L622.430088 378.341884l8.629541-15.57779 37.538965-1.864464 14.829753-26.489304-37.214577 1.260713 5.41022-9.653871 21.684882-1.260713 14.829753-26.486234-21.357424 0.699941 10.864442-19.495006-5.875824-20.703531-20.751626 5.875824-10.866489 19.444864-10.6782-18.559705-14.736633 26.487258 10.259668 19.075451-5.41022 9.746992-18.328437-32.365128-14.874779 26.53433 18.0941 32.878828-8.626471 15.343453-44.397163-25.182542-0.140193-31.292704 50.131771-31.711236-0.231267-48.03297-50.131771 30.776957-0.093121-17.5804 28.819372-18.559705-0.234337-47.987944-28.867468 17.628496-0.138146-35.302017-24.204262-23.876804-24.063045 24.108071 0.186242 35.350113-29.005614-17.349133 0.279363 47.987944 29.005614 18.234293 0.093121 17.628496-50.459229-30.266327 0.234337 47.985898 50.459229 31.199583 0.186242 33.5757-45.514613 26.443255-7.788383-12.730952 16.694217-33.623795-15.902178-25.882484-17.021675 33.110095-5.782703-9.467629 9.466606-19.541055-15.902178-25.880437-9.794064 19.025309-11.658528-19.025309-20.937868-4.990664-5.037736 20.937868 11.659551 19.075451-21.405519 0.093121 15.857153 25.927509 21.684882 0.327458 5.875824 9.512654-37.214577 0.186242 15.857153 25.882484 37.539988 0.279363 7.4159 12.172227-40.619116 23.597441-30.218232-16.136515-2.51938-59.040674-41.877783-23.828708 1.726318 58.620096-15.390525-8.722662-1.678222-34.089399-41.922808-23.828708 0.931209 33.668821-30.776957-17.442254-32.923854 8.908904 8.998955 32.737612 30.825053 17.48728-29.612435 16.367783 41.877783 23.783683 30.404474-15.902178 15.343453 8.722662-51.53063 28.398794 41.877783 23.783683 52.371788-27.888164 28.54001 15.205307 0.279363 49.246611-13.524015-0.188288-19.537985-32.03767-30.359448-0.417509 18.932188 32.083719-11.097756-0.186242-11.473309-18.420535-30.311353-0.372483 10.773368 18.466584-22.338774-0.324388-15.388479 15.062044 15.062044 15.483646 22.338774 0.279363-11.287067 18.139126 30.314423 0.419556 11.890818-18.187221 11.145851 0.186242-19.679202 31.524994 30.359448 0.419556 20.286022-31.617092 14.037714 0.186242 0.279363 52.744271-28.401864 16.601096-52.696176-27.374464-41.59842 24.249287 51.809993 27.795043-15.247262 8.905834-30.54569-15.620769-41.59842 24.249287 29.705556 16.042371-30.638811 17.766642-8.626471 32.875758 32.971949 8.581446 30.638811-17.766642-0.606821 33.668821 41.643446-24.249287 1.39886-34.089399 15.202237-8.860808-1.072425 58.526975 41.643446-24.158213 1.912559-59.0857 25.696242-14.968923 43.6041 24.762987-6.762007 10.959609-37.542035 0.186242-15.94925 25.834388 37.169551 0.327458-5.830799 9.467629-21.684882 0.279363-15.995299 25.789363 21.405519 0.279363-11.799744 18.97926 4.990664 20.892843 20.939915-4.849448 11.797697-19.027355 9.746992 19.027355 15.997346-25.789363-9.467629-19.541055 5.875824-9.464559 16.880459 33.110095 15.995299-25.789363-16.60212-33.670867 7.368828-11.890818 47.427172 26.861788 0.141216 29.659507-50.131771 31.711236 0.231267 47.987944 50.179866-30.731932 0.093121 17.5804-28.867468 18.513656 0.233314 47.985898 28.867468-17.625426 0.186242 35.347043 24.204262 23.831778 23.969924-24.063045-0.141216-35.350113 29.005614 17.301038-0.279363-47.939849-29.005614-18.234293-0.093121-17.628496 50.459229 30.221302-0.234337-47.987944-50.459229-31.152511-0.138146-27.327392 48.732911-28.353768 5.176906 9.140171-18.048051 32.971949 14.781658 26.486234 18.375509-32.363082 5.408173 9.698896-10.257621 19.120476 14.781658 26.489304 10.587126-18.561751 10.911514 19.447934 20.705578 5.875824 5.875824-20.705578-10.866489-19.541055 21.405519 0.747014-14.829753-26.536376-21.639856-1.210571-5.408173-9.746992 37.121456 1.351787-14.784728-26.53433-37.493939-1.819438-5.41022-9.653871 43.931558-25.555026 23.642466 13.710256 2.51938 59.0857 41.830711 23.783683-1.679245-58.620096 15.391549 8.722662 1.678222 34.089399 41.922808 23.831778-0.931209-33.718963 30.776957 17.489326 32.923854-8.953929-8.998955-32.692586L820.582077 651.154293zM551.732933 388.227022c19.727297 11.287067 48.686862 27.701922 70.186526 39.920198l-42.11212 23.176862c-9.233292-5.270027-19.213597-10.866489-27.840068-15.809057L551.732933 388.227022zM503.513722 390.793474l0.279363 47.192835c-3.638877 2.191922-6.203282 3.638877-6.203282 3.638877s-8.998955 5.221932-19.166525 11.145851l-42.438555-22.666232C456.177624 418.355203 483.600183 402.404929 503.513722 390.793474zM409.030837 470.165196l41.225937 21.964244c0.048095 11.518335 0.093121 25.51 0.186242 37.959543l-40.9916 23.831778C409.357272 528.690124 409.17103 493.481228 409.030837 470.165196zM504.81946 638.888945c-22.10546-12.499685-53.256948-30.173207-73.822332-41.877783l40.943504-23.876804c9.980305 5.734608 22.01234 12.544711 32.597419 18.559705L504.81946 638.888945zM530.46863 557.37135c-0.420579-0.231267-36.793998-20.844747-37.214577-21.12411 0-0.5137-0.234337-42.11212-0.234337-42.672892 0.420579-0.232291 22.10546-12.824073 22.10546-12.824073s14.502295-8.393157 14.922874-8.67252c0.420579 0.279363 36.793998 20.891819 37.214577 21.12411 0 0.5137 0.186242 42.157145 0.186242 42.670845C567.028291 536.106024 530.888186 557.13906 530.46863 557.37135zM552.9916 640.940674l-0.231267-47.192835c11.004635-6.437619 24.294312-14.130835 35.348066-20.567431l40.805358 23.645536C607.181803 609.463776 574.537312 628.443036 552.9916 640.940674zM651.437749 554.341341 610.211812 530.464537c-0.093121-13.337773-0.138146-28.774347-0.231267-40.898479l41.037648-22.525016C651.111315 490.730581 651.297556 528.272615 651.437749 554.341341z" p-id="3997" fill="#ffffff"></path></svg>