<?xml version="1.0" standalone="no"?><!DOCTYPE svg PUBLIC "-//W3C//DTD SVG 1.1//EN" "http://www.w3.org/Graphics/SVG/1.1/DTD/svg11.dtd"><svg class="icon" style="" viewBox="0 0 1024 1024" version="1.1" xmlns="http://www.w3.org/2000/svg" p-id="2954" xmlns:xlink="http://www.w3.org/1999/xlink" width="200" height="200"><defs><style type="text/css"><![CDATA[

]]></style></defs><path d="M844.558142 670.037363l-30.813796-17.685801 29.810956-16.271592-41.935088-24.023136-30.540573 15.770172-15.361873-8.843412 51.828412-28.216645-41.893132-24.020066-52.648081 27.668153L688.433338 580.057025l0-46.084595 56.615439-19.646456L688.433338 490.211764l0-47.225581 24.570605-13.354146 52.694129 27.715225 41.84606-24.069185-51.828412-28.216645 15.405875-8.843412 30.541597 15.772218 41.891086-24.022113L813.788348 371.692441l30.815843-17.685801 8.79634-32.865525-33.003672-8.79634-30.813796 17.686824 0.730641-33.778314-41.84606 24.069185-1.549286 34.233686-15.361873 8.79634 1.36816-58.758242-41.84606 24.069185-2.233877 59.257615-28.03245 15.225773-37.8347-21.698185 11.669784-60.945047L583.409376 358.702592l-37.969776-21.789259 0-31.407314 50.460252-31.544437 0-48.136324-50.460252 30.587646L545.4396 238.771105l29.03529-18.461467 0-48.136324-29.03529 17.550725 0-35.418674-24.160259-24.069185-24.158213 24.069185 0 35.418674-29.03836-17.550725 0 48.136324L497.121128 238.771105l0 17.641799-50.461275-30.587646 0 48.136324 50.461275 31.544437 0 33.68724-37.470403 21.468964-48.864918-41.84606 7.886621 65.411779-34.735106 20.012799-30.268374-16.364713-2.188852-59.259662-41.891086-24.067138 1.414209 58.802244-15.407921-8.843412-1.503237-34.233686-41.893132-24.067138 0.774643 33.776268-30.813796-17.686824-33.047674 8.798387 8.843412 32.865525 30.813796 17.730826-29.765931 16.22759 41.893132 24.069185 30.541597-15.772218 15.361873 8.798387-51.828412 28.260647 41.891086 24.022113 52.648081-27.668153 28.580942 15.361873 0 44.852534-60.715827 21.10569 60.715827 25.75457 0 41.209564-28.580942 16.500812-52.694129-27.761274-41.891086 24.113187 51.875484 28.172643-15.361873 8.843412-30.541597-15.816221-41.893132 24.067138 29.721929 16.22759-30.769794 17.732873-8.843412 32.910551 33.003672 8.752338 30.813796-17.639752-0.730641 33.776268 41.84606-24.113187 1.549286-34.186613 15.361873-8.843412-1.412163 58.71117 41.891086-24.023136 2.233877-59.257615 25.800619-14.862499 39.883359 22.930245-11.531638 60.624752 50.871621-38.016849 38.381146 22.017456 0 29.765931-50.461275 31.498388 0 48.136324 50.461275-30.587646 0 17.685801-29.036313 18.416442 0 48.136324 29.036313-17.550725 0 35.465746 24.160259 24.022113 24.158213-24.022113 0-35.465746 29.03836 17.550725 0-48.136324-29.03836-18.416442 0-17.685801 50.460252 30.587646 0-48.136324-50.460252-31.498388 0-27.442002 40.980343-23.520693 45.309952 38.835494-7.338129-60.624752 40.84322-23.476691 23.611767 13.858636 2.233877 59.21259 41.891086 24.067138-1.414209-58.758242 15.363919 8.798387 1.549286 34.233686 41.891086 24.113187-0.730641-33.822316 30.813796 17.685801 33.003672-8.798387L844.558142 670.037363zM545.4396 387.283534c19.73753 11.349489 48.681746 27.987425 70.244854 40.387849l-42.392506 22.972201c-9.253758-5.332449-19.238157-10.986215-27.852348-15.954367L545.4396 387.283534zM497.121128 389.56346l0 47.361681c-3.692089 2.139733-6.245238 3.598968-6.245238 3.598968s-9.025561 5.197372-19.282159 11.079336l-42.48358-22.974247C449.439152 416.95839 477.019301 401.095098 497.121128 389.56346zM401.896346 468.695728l41.253566 22.199605c0 11.531638 0 25.616424 0 38.107923l-41.253566 23.702841C401.896346 527.362896 401.896346 492.034273 401.896346 468.695728zM497.074056 638.403898c-22.062482-12.672624-53.196573-30.541597-73.752748-42.392506l41.160445-23.704888c9.984399 5.743818 22.017456 12.672624 32.592302 18.736736L497.074056 638.403898zM523.238972 556.762483c-0.410346-0.226151-36.786835-21.10569-37.195134-21.37789 0-0.50142 0-42.255383 0-42.803875 0.408299-0.226151 22.197558-12.717649 22.197558-12.717649s14.586207-8.388041 14.997576-8.661264c0.457418 0.273223 36.830837 21.151739 37.242206 21.37789 0 0.548492 0 42.301432 0 42.803875C560.069809 535.656793 523.69639 556.536332 523.238972 556.762483zM545.392528 593.367169c11.123338-6.383384 24.479531-14.084787 35.55682-20.468171l40.84322 23.978111c-21.880333 12.535501-54.701856 31.451316-76.399017 43.851741L545.393551 593.367169zM644.62867 554.346457l-41.253566-24.160259c0-13.401218 0-28.854165 0-41.025369l41.253566-22.425755C644.62867 490.528989 644.62867 528.228613 644.62867 554.346457z" p-id="2955" fill="#ffffff"></path></svg>