<?xml version="1.0" standalone="no"?><!DOCTYPE svg PUBLIC "-//W3C//DTD SVG 1.1//EN" "http://www.w3.org/Graphics/SVG/1.1/DTD/svg11.dtd"><svg class="icon" style="" viewBox="0 0 1024 1024" version="1.1" xmlns="http://www.w3.org/2000/svg" p-id="3124" xmlns:xlink="http://www.w3.org/1999/xlink" width="200" height="200"><defs><style type="text/css"><![CDATA[

]]></style></defs><path d="M845.184 345.984c-51.008 60.608-276.032 176.896-276.032 176.896s75.712-241.216 126.72-301.824 125.76-81.792 166.976-47.296S896.192 285.376 845.184 345.984z" p-id="3125" fill="#ffffff"></path><path d="M878.592 596.736c-78.144 13.76-325.44-41.472-325.44-41.472s213.44-136.256 291.584-149.952c78.144-13.76 149.056 17.984 158.4 70.848C1012.48 528.96 956.736 582.976 878.592 596.736z" p-id="3126" fill="#ffffff"></path><path d="M742.528 810.176c-68.736-39.552-222.592-240.384-222.592-240.384s251.328 32.512 320 72.064 102.592 109.312 75.712 155.776C888.768 844.16 811.264 849.792 742.528 810.176z" p-id="3127" fill="#ffffff"></path><path d="M500.736 886.528C473.6 812.16 485.184 559.68 485.184 559.68s171.584 185.984 198.72 260.352 8.128 149.504-42.432 167.872C590.848 1006.272 527.872 960.896 500.736 886.528z" p-id="3128" fill="#ffffff"></path><path d="M266.304 790.016c27.136-74.368 198.72-260.352 198.72-260.352s11.584 252.48-15.552 326.848-90.112 119.744-140.736 101.376C258.176 939.52 239.168 864.32 266.304 790.016z" p-id="3129" fill="#ffffff"></path><path d="M148.928 565.76c68.736-39.552 320-72.064 320-72.064S315.072 694.528 246.4 734.08 100.16 768 73.28 721.536 80.256 605.312 148.928 565.76z" p-id="3130" fill="#ffffff"></path><path d="M203.584 318.72c78.144 13.76 291.584 149.952 291.584 149.952S247.872 523.904 169.728 510.144 35.84 442.432 45.184 389.568 125.44 304.96 203.584 318.72z" p-id="3131" fill="#ffffff"></path><path d="M404.608 164.544c51.008 60.608 126.72 301.824 126.72 301.824S306.304 350.08 255.296 289.472 196.416 151.744 237.632 117.248 353.6 103.872 404.608 164.544z" p-id="3132" fill="#ffffff"></path><path d="M657.984 175.296c0 79.104-97.472 312.448-97.472 312.448S463.104 254.4 463.104 175.296 506.752 32 560.576 32 657.984 96.128 657.984 175.296z" p-id="3133" fill="#ffffff"></path></svg>